<?xml version="1.0" standalone="no"?>
<!DOCTYPE svg PUBLIC "-//W3C//DTD SVG 20010904//EN"
 "http://www.w3.org/TR/2001/REC-SVG-20010904/DTD/svg10.dtd">
<svg version="1.0" xmlns="http://www.w3.org/2000/svg"
 width="256.000000pt" height="256.000000pt" viewBox="0 0 256.000000 256.000000"
 preserveAspectRatio="xMidYMid meet">
<metadata>
Created by potrace 1.14, written by Peter Selinger 2001-2017
</metadata>
<g transform="translate(0.000000,256.000000) scale(0.100000,-0.100000)"
fill="#000000" stroke="none">
<path d="M1540 2533 c-107 -6 -330 -43 -375 -63 -11 -5 -40 -14 -65 -20 -49
-13 -77 -25 -220 -95 -120 -59 -139 -70 -225 -126 -38 -25 -82 -53 -96 -61
-90 -56 -232 -186 -329 -300 -135 -159 -218 -411 -206 -623 11 -204 75 -375
204 -548 138 -185 379 -373 647 -505 157 -78 225 -103 370 -138 107 -26 138
-29 280 -29 143 0 171 3 270 29 61 16 124 37 141 47 17 11 38 19 47 19 30 0
181 126 235 195 44 58 102 163 143 260 48 113 103 336 130 525 11 74 24 158
30 185 14 67 7 276 -14 400 -32 190 -116 401 -208 520 -137 179 -304 276 -534
309 -134 19 -167 22 -225 19z m-370 -753 l0 -70 -325 0 -325 0 0 -175 0 -175
290 0 290 0 0 -70 0 -70 -290 0 -290 0 0 -185 0 -185 335 0 335 0 0 -70 0 -70
-415 0 -415 0 0 570 0 570 405 0 405 0 0 -70z m935 32 c212 -79 312 -280 245
-493 -35 -111 -121 -196 -242 -240 -56 -20 -87 -23 -280 -27 l-218 -4 0 -174
0 -174 -80 0 -80 0 0 571 0 571 298 -4 c276 -4 301 -6 357 -26z"/>
<path d="M1610 1445 l0 -255 173 0 c194 0 266 13 331 58 122 84 122 310 0 394
-65 45 -137 58 -331 58 l-173 0 0 -255z"/>
</g>
</svg>
